{"title":"Kingsman The Secret Service 2015 CAM XviD AC3 MURD3R ","uid":11710314,"size":1581325779,"categoryP":"video","categoryS":"movies","magnet":"?xt=urn:btih:34049ea588754deae97e91678db0549f8349429f&amp;dn=Kingsman+The+Secret+Service+2015+CAM+XviD+AC3+MURD3R+&amp;tr=udp%3A%2F%2Ftracker.openbittorrent.com%3A80&amp;tr=udp%3A%2F%2Fopen.demonii.com%3A1337&amp;tr=udp%3A%2F%2Ftracker.coppersurfer.tk%3A6969&amp;tr=udp%3A%2F%2Fexodus.desync.com%3A6969","seeders":419,"leechers":62,"uploader":".BONE.","files":7,"time":1424308864,"description":"Kingsman The Secret Service 2015 CAM XviD AC3 MURD3R.avi\n\nFormat : AVI\nFormat/Info : Audio Video Interleave\nFile size : 1.47 GiB\nDuration : 1h 50mn\nOverall bit rate : 1 908 Kbps\n\nVideo\nID : 0\nFormat : xvid\nCodec ID : xvid\nDuration : 1h 50mn\nBit rate : 1 800 Kbps\nWidth : 720 pixels\nHeight : 332 pixels\nDisplay aspect ratio : 2.2:1\nFrame rate : 29.970 fps\nBits/(Pixel*Frame) : 0.251\nStream size : 1.39 GiB (94%)\n\nAudio\nID : 1\nFormat : AC-3\nFormat/Info : Audio Coding 3\nMode extension : CM (complete main)\nFormat settings, Endianness : Big\nCodec ID : 2000\nDuration : 1h 50mn\nBit rate mode : Constant\nBit rate : 96.0 Kbps\nChannel(s) : 2 channels\nChannel positions : Front: L R\nSampling rate : 44.1 KHz\nBit depth : 16 bits\nCompression mode : Lossy\nStream size : 75.8 MiB (5%)\nAlignment : Aligned on interleaves\nInterleave, duration : 35 ms (1.04 video frame)\n &lt;a href=&quot;\nhttp://s20.postimage.org/kqo2oa6t9/vlcsnap_2015_02_18_23h55m46s113.png&quot; rel=&quot;nofollow&quot; target=&quot;_NEW&quot;&gt;\nhttp://s20.postimage.org/kqo2oa6t9/vlcsnap_2015_02_18_23h55m46s113.png&lt;/a&gt; &lt;a href=&quot;\nhttp://s20.postimage.org/n99roysjh/vlcsnap_2015_02_18_23h55m39s43.png&quot; rel=&quot;nofollow&quot; target=&quot;_NEW&quot;&gt;\nhttp://s20.postimage.org/n99roysjh/vlcsnap_2015_02_18_23h55m39s43.png&lt;/a&gt; &lt;a href=&quot;\nhttp://s20.postimage.org/81ts4m0ot/vlcsnap_2015_02_18_23h55m37s18.png&quot; rel=&quot;nofollow&quot; target=&quot;_NEW&quot;&gt;\nhttp://s20.postimage.org/81ts4m0ot/vlcsnap_2015_02_18_23h55m37s18.png&lt;/a&gt; &lt;a href=&quot;\nhttp://s20.postimage.org/pt5ej2g3h/vlcsnap_2015_02_18_23h55m59s237.png&quot; rel=&quot;nofollow&quot; target=&quot;_NEW&quot;&gt;\nhttp://s20.postimage.org/pt5ej2g3h/vlcsnap_2015_02_18_23h55m59s237.png&lt;/a&gt;","torrent":{"xt":"urn:btih:34049ea588754deae97e91678db0549f8349429f","amp;dn":"Kingsman+The+Secret+Service+2015+CAM+XviD+AC3+MURD3R+","amp;tr":["udp%3A%2F%2Ftracker.openbittorrent.com%3A80","udp%3A%2F%2Fopen.demonii.com%3A1337","udp%3A%2F%2Ftracker.coppersurfer.tk%3A6969","udp%3A%2F%2Fexodus.desync.com%3A6969"],"infoHash":"34049ea588754deae97e91678db0549f8349429f","infoHashBuffer":{"type":"Buffer","data":[52,4,158,165,136,117,77,234,233,126,145,103,141,176,84,159,131,73,66,159]},"announce":[],"urlList":[]}}